<svg t="1707742488746" viewBox="0 0 1024 1024" version="1.1" xmlns="http://www.w3.org/2000/svg" p-id="28651"><path d="M954.189 786.355H622.157v178.176h130.841c16.026 0 29.492 12.928 29.492 29.466 0 16.563-12.928 30.003-29.492 30.003H271.002a29.491 29.491 0 0 1-29.492-29.491c0-16.538 12.928-29.978 29.492-29.978h130.33V786.355H69.811A69.837 69.837 0 0 1 0 716.544V69.811A70.17 70.17 0 0 1 69.811 0H954.19A69.837 69.837 0 0 1 1024 69.811v646.733a69.837 69.837 0 0 1-69.811 69.811zM461.312 964.531h100.864V786.355H461.312v178.176zM964.532 59.47H59.468v667.417H964.53V59.47zM175.333 364.85L282.88 256.768c5.709-5.683 12.954-8.78 21.222-8.78 7.757 0 15.514 3.097 21.197 8.78 11.904 11.392 11.367 30.515 0 41.882l-92.057 92.083 92.057 92.032a30.157 30.157 0 0 1-0.512 42.419 28.16 28.16 0 0 1-20.685 8.78c-7.756 0-15.001-3.097-20.684-8.78l-107.06-107.06-1.024-1.023a59.52 59.52 0 0 1-5.708-4.66 29.286 29.286 0 0 1-8.781-21.196v-1.05c0-8.269 3.097-15.513 8.78-21.197a23.347 23.347 0 0 1 5.71-4.147zM566.81 252.11a30.925 30.925 0 0 1 25.881-15.488c5.171 0 10.343 1.536 14.976 4.121 7.245 4.122 11.904 10.343 13.978 18.1 2.073 7.756 1.024 16.025-3.098 22.758L457.702 559.846a30.131 30.131 0 0 1-40.345 10.855 29.235 29.235 0 0 1-11.367-40.346L566.81 252.11z m123.11 41.907c0-8.294 3.098-15.514 8.78-21.222 5.684-5.684 13.44-8.781 21.198-8.781 7.756 0 15.001 3.097 20.684 8.78l107.06 107.06 1.05 0.512c2.047 1.05 4.12 2.585 5.682 4.147 5.684 5.683 8.781 13.44 8.781 21.197v3.123c-0.512 7.245-3.61 13.952-8.78 19.123-1.562 1.536-3.098 2.586-5.172 5.683L741.094 541.722a30.08 30.08 0 0 1-21.196 8.806c-8.27 0-15.514-3.098-21.197-8.806a30.157 30.157 0 0 1-8.781-21.197c0-8.269 3.098-15.514 8.78-21.197l92.058-92.058-92.057-92.057a30.157 30.157 0 0 1-8.781-21.197z" p-id="28652"></path></svg>
