<svg t="1707742878504" viewBox="0 0 1024 1024" version="1.1" xmlns="http://www.w3.org/2000/svg" p-id="44140"><path d="M314.3168 674.2016a38.144 38.144 0 0 0-25.344 9.3184l-166.4 123.2384V114.8416h713.728v285.6448c0 17.408 15.9744 31.488 35.6864 31.488 19.712 0 35.6864-14.08 35.6864-31.488v-285.696c0-17.1008-7.4752-33.3824-20.6848-44.9024a76.3904 76.3904 0 0 0-50.688-18.688H122.624a76.288 76.288 0 0 0-50.688 18.688A59.392 59.392 0 0 0 51.2 114.8416v691.9168c0 14.848 5.8368 29.2864 16.5376 40.704 12.032 13.0048 29.4912 21.1456 48.3328 22.6304a77.312 77.312 0 0 0 52.224-14.4384l171.264-127.488a28.928 28.928 0 0 0 7.8336-34.4064c-5.4272-11.776-18.432-19.456-32.8704-19.456l-0.2048-0.1024z" p-id="44141"></path><path d="M228.3008 256c-19.6096 0-35.4816 15.1552-35.4816 33.8944 0 18.7392 15.872 33.9456 35.4816 33.9456h496.3328c19.6096 0 35.4816-15.2064 35.4304-33.9456 0-18.7392-15.872-33.8944-35.4304-33.8944H228.3008z m141.824 203.4176h-141.824c-19.6096 0-35.4816 15.2064-35.4816 33.9456 0 18.688 15.872 33.8944 35.4816 33.8944h141.824c19.5584 0 35.4304-15.2064 35.4304-33.8944 0-18.7392-15.872-33.9456-35.4304-33.9456z" p-id="44142"></path><path d="M898.56 571.136a423.68 423.68 0 0 1-135.68-80.4864c-28.8256-24.8832-40.1408-29.8496-47.2576-29.8496-7.0656 0-15.616 4.096-39.68 25.344a393.9328 393.9328 0 0 1-139.4688 87.2448 28.16 28.16 0 0 0-17.5104 35.2256c3.072 10.8032 13.3632 18.2784 25.088 18.1248h10.3936a427.8784 427.8784 0 0 0 163.5328-101.2736l6.144 6.2976a397.1584 397.1584 0 0 0 159.744 93.5936 30.464 30.464 0 0 0 36.4032-19.9168 25.6 25.6 0 0 0-2.7136-21.8624 27.904 27.904 0 0 0-18.9952-12.4416z" p-id="44143"></path><path d="M885.2992 804.1472h-144.64v-75.9808h127.1808a29.1328 29.1328 0 0 0 21.2992-7.68 26.5216 26.5216 0 0 0 8.4992-20.2752 25.856 25.856 0 0 0-9.728-17.92 28.2624 28.2624 0 0 0-20.0704-6.0928h-127.1808V606.208c0-14.9504-9.9328-24.8832-29.2864-26.6752a27.5456 27.5456 0 0 0-19.0976 7.9872 25.1392 25.1392 0 0 0-7.3728 18.688v197.9904h-60.928v-129.28a26.4704 26.4704 0 0 0-7.936-20.224 28.416 28.416 0 0 0-40.704 0.512 25.9584 25.9584 0 0 0-7.168 19.712v129.28h-23.1936a26.5216 26.5216 0 0 0-26.5216 10.6496 23.9616 23.9616 0 0 0 0 27.5456 26.5216 26.5216 0 0 0 26.5216 10.6496h340.3776a27.648 27.648 0 0 0 20.0192-7.5264 25.1904 25.1904 0 0 0 7.8848-19.1488 24.064 24.064 0 0 0-9.1136-16.64 26.3168 26.3168 0 0 0-18.7904-5.5296z" p-id="44144"></path></svg>
