<svg t="1707742770508" viewBox="0 0 1024 1024" version="1.1" xmlns="http://www.w3.org/2000/svg" p-id="39549"><path d="M934.502 698.718c18.065-9.033 40.033-1.71 49.066 16.355 9.032 18.066 1.71 40.033-16.356 49.066L528.355 983.568a36.571 36.571 0 0 1-32.71 0L56.788 764.139c-18.066-9.033-25.388-31-16.356-49.066 9.033-18.065 31-25.388 49.066-16.355L512 909.97l422.502-211.25zM512 690.54l422.502-211.25c18.065-9.033 40.033-1.71 49.066 16.355 9.032 18.065 1.71 40.033-16.356 49.065L528.355 764.14a36.571 36.571 0 0 1-32.71 0L56.788 544.71c-18.066-9.032-25.388-31-16.356-49.065 9.033-18.066 31-25.388 49.066-16.355L512 690.54zM154.92 292.571L512 471.111l357.08-178.54L512 114.031l-357.08 178.54z m-98.132-32.71L495.645 40.432a36.571 36.571 0 0 1 32.71 0l438.857 219.429c26.955 13.477 26.955 51.943 0 65.42l-438.857 219.43a36.571 36.571 0 0 1-32.71 0L56.788 325.28c-26.955-13.477-26.955-51.943 0-65.42z"  p-id="39550"></path></svg>
