<svg t="1707309840802" class="icon" viewBox="0 0 1024 1024" version="1.1" xmlns="http://www.w3.org/2000/svg" p-id="6068" width="200" height="200"><path d="M287.5681 1024q-7.48998 0-15.018174-0.191071c-59.206508-1.515829-93.204394-11.591636-94.631057-12.02473a22.291607 22.291607 0 0 1-4.343678-1.83428c-47.474754-26.253144-70.123027-55.830922-67.307916-87.892623 2.356541-26.928261 22.610059-51.716528 60.200077-73.676945 4.789511-2.802373 9.553546-5.375462 14.12651-7.642837-10.661757-12.190325-21.348991-28.265758-32.176342-48.404633-2.43297-4.522012-4.738559-8.993071-6.891291-13.324012a222.916071 222.916071 0 0 1-38.061327 38.456207 22.291607 22.291607 0 0 1-29.590516-2.152732c-52.353431-53.958427-59.206508-132.475836-19.820423-227.030465 21.489109-51.614624 50.952245-94.261653 64.429113-112.489818-13.451393-48.824988-5.095224-84.95013 4.700345-107.216261a122.642053 122.642053 0 0 1 22.062322-33.857766c3.01892-61.62674 20.992325-120.068965 52.22605-169.556333a325.7377 325.7377 0 0 1 90.66952-94.338081 385.19897 385.19897 0 0 1 99.853661-49.041535C450.997425 1.18464 503.401809 0.025476 513.261068 0c6.127007 0 61.868763 0.484046 128.399657 22.087798 38.214184 12.394134 72.734329 29.424921 102.719725 50.608317a311.802262 311.802262 0 0 1 90.440234 98.325094c28.023735 48.264514 43.309408 104.757815 44.201073 163.951586a122.8586 122.8586 0 0 1 21.74387 33.513839c9.846521 22.266131 18.151737 58.391272 4.700345 107.216261 13.527821 18.279118 42.940004 60.887932 64.429113 112.489818 39.373347 94.567366 32.52027 173.072037-19.833161 227.030464a22.291607 22.291607 0 0 1-29.488612 2.190947 222.916071 222.916071 0 0 1-38.061327-38.456207c-2.152732 4.330941-4.458321 8.802-6.891291 13.324012-10.827352 20.113399-21.501847 36.188832-32.176342 48.404633a336.539576 336.539576 0 0 1 14.12651 7.642836c37.57728 21.960417 57.830798 46.748685 60.187339 73.676946 2.815112 32.087176-19.833161 61.677692-67.307916 87.892622a22.278869 22.278869 0 0 1-4.343678 1.834281c-1.413925 0.433094-35.424548 10.5089-94.631057 12.02473-52.506288 1.337496-136.208088-4.025227-239.47555-36.774783-55.627113 17.667691-136.692134 37.004068-224.4319 37.016806z m224.4319-82.670017a22.291607 22.291607 0 0 1 6.916767 1.095473c54.850091 17.833286 139.163318 38.812872 229.285101 36.863949 45.946187-0.993569 75.154561-7.642837 82.937517-9.642712 27.883616-15.795196 43.220242-31.66682 42.17572-43.717026-1.885233-21.794823-49.117964-47.920586-80.440856-58.722462a22.291607 22.291607 0 0 1 0.191071-42.226673c8.40712-2.802373 24.202316-18.419236 43.309408-53.843784a481.638831 481.638831 0 0 0 23.680056-51.410815 22.291607 22.291607 0 0 1 42.596076 2.929754c3.579395 15.756982 17.14543 32.711341 29.004565 44.812499 67.511724-102.503178-66.658274-271.486298-68.097675-273.282365a22.317083 22.317083 0 0 1-3.821418-21.030539c24.750053-74.326587-13.782582-108.719352-16.737812-111.190536a21.247086 21.247086 0 0 1-8.470811-17.731381c0.585951-54.671759-12.610681-106.808643-38.214184-150.754954C710.968516 46.71047 523.553421 44.621428 513.528567 44.621428h-0.152856c-5.32451 0-53.690928 0.675117-111.521726 19.5784-73.625994 24.074936-129.711677 66.021371-166.703007 124.680143-28.482305 45.169165-44.277501 99.127592-45.742377 156.143154a21.196134 21.196134 0 0 1-8.458073 16.941621c-2.95523 2.547612-41.475127 36.940377-16.725074 111.177798a22.291607 22.291607 0 0 1-3.821419 21.043277c-1.426663 1.783329-135.583923 170.791924-68.084937 273.295103 11.922825-12.126634 25.386956-28.991827 28.991828-44.837975a22.291607 22.291607 0 0 1 42.596076-2.929754 485.001679 485.001679 0 0 0 23.896603 51.818432c18.979711 35.157049 34.685741 50.659269 43.041909 53.499857a22.291607 22.291607 0 0 1 0.178333 42.239411c-31.310154 10.789138-78.530147 36.940377-80.428119 58.709724-1.044521 12.050206 14.292105 27.92183 42.188459 43.717026 7.719265 1.974399 36.940377 8.636405 82.937516 9.629974 49.754867 1.095473 129.928224-4.445583 229.285101-36.863949a22.291607 22.291607 0 0 1 6.993196-1.133687z" p-id="6069"></path></svg>
