<svg t="1707709416921" viewBox="0 0 1024 1024" version="1.1" xmlns="http://www.w3.org/2000/svg" p-id="8432"><path d="M169.07264 51.2C103.97696 51.2 51.2 103.97696 51.2 169.07264v685.85472C51.2 920.02304 103.97696 972.8 169.07264 972.8h685.85472C920.02304 972.8 972.8 920.02304 972.8 854.92736V169.11872c0.0256-65.1008-52.73088-117.89312-117.82656-117.91872H169.07264zM115.4816 169.07264c0-29.58336 24.00768-53.59104 53.59104-53.59104h685.85472c29.58336 0 53.59616 24.00768 53.59616 53.59104v139.29984H115.4816V169.07264z m0 685.85472V372.69504h793.04192v482.2272c0 29.58336-23.96672 53.59616-53.59616 53.59616H169.07264c-29.58336 0-53.59104-23.9616-53.59104-53.59104zM211.92704 254.82752a42.8544 42.8544 0 1 0 0-85.7088 42.8544 42.8544 0 0 0 0 85.7088z m171.46368-42.8544a42.8544 42.8544 0 0 1-85.7088 0 42.8544 42.8544 0 0 1 85.7088 0z m85.7088 42.8544a42.8544 42.8544 0 1 0 0-85.7088 42.8544 42.8544 0 0 0 0 85.7088z" p-id="8433"></path></svg>
