<svg t="1707310137761" class="icon" viewBox="0 0 1025 1024" version="1.1" xmlns="http://www.w3.org/2000/svg" p-id="5257" width="200" height="200"><path d="M738.120932 485.211052c21.671958-40.333921 36.721928-96.319812-1.203998-134.245738-19.865961-19.865961-48.159906-30.099941-84.279835-30.099941-57.791887 0-119.797766 26.487948-130.633745 31.303939-0.601999 0-1.203998 0.601999-1.805996 0.601999 0-0.601999 0.601999-1.805996 0.601999-2.407995 1.203998-5.417989 2.407995-11.437978 3.611993-17.457966l0.601999-4.213992c0-29.497942-6.019988-53.577895-17.457966-72.841858-12.039976-20.46796-37.323927-44.547913-87.28983-44.547913-22.875955 0-49.965902 5.417989-80.065844 15.651969C198.729986 275.113463 80.738216 438.857143 75.922226 445.47913-10.163606 560.460905 0.070374 651.362728 0.672372 654.974721 18.130338 812.698413 153.580074 906.00823 392.573607 924.670194c13.243974 1.203998 27.089947 1.805996 40.93592 1.805996 163.141681 0 361.801293-72.239859 426.817166-210.699588 19.263962-40.333921 20.46796-79.463845 4.815991-116.787772C839.858733 539.390947 775.444859 502.067019 738.120932 485.211052zM816.380779 694.706643c-55.985891 118.593768-238.993533 183.007643-382.871252 183.007643-12.641975 0-24.681952-0.601999-36.721928-1.203998-148.69371-11.437978-329.293357-60.199882-347.353322-226.953557 0-0.601999-7.825985-77.05585 66.219871-175.181658 1.203998-1.805996 114.379777-157.723692 240.79953-201.067607 25.283951-8.427984 46.955908-12.641975 64.413874-12.641975 25.283951 0 54.781893 7.825985 55.383892 66.219871-1.203998 4.815991-1.805996 9.631981-3.009994 13.845973-4.213992 19.263962-8.427984 37.323927 3.611993 51.771899 7.223986 9.029982 22.273956 18.661964 61.40388 6.621987l3.009994-1.203998c0.601999 0 60.199882-27.691946 111.971781-27.691946 22.875955 0 39.129924 5.417989 49.965902 15.651969 24.079953 24.079953-7.223986 79.463845-20.46796 96.921811l0 0c-9.631981 13.243974-3.611993 32.507937 12.039976 37.323927 27.691946 9.029982 103.543798 45.149912 126.419753 98.125808C830.828751 641.730747 829.624753 667.014697 816.380779 694.706643z" p-id="5258"></path><path d="M990.960438 232.371546c-36.119929-62.005879-102.941799-110.165785-179.39565-127.623751-40.333921-9.631981-87.891828-9.029982-141.469724 1.203998 0 0-18.059965 12.641975-13.243974 30.099941 4.815991 18.059965 22.875955 17.457966 22.875955 17.457966 46.353909-9.029982 86.687831-9.029982 120.399765-1.203998 24.079953 5.417989 104.747795 29.497942 148.69371 104.747795 30.70194 52.975897 34.915932 117.99177 12.641975 193.241623-1.203998 3.009994-1.805996 6.019988-1.805996 9.631981 0 13.243974 10.835979 24.079953 24.681952 24.079953l18.059965 0 5.417989-17.457966C1034.304354 376.249265 1028.886364 297.387419 990.960438 232.371546z" p-id="5259"></path><path d="M702.001003 241.401529c-13.243974 2.407995-22.273956 15.049971-19.263962 28.293945 2.407995 13.243974 15.049971 22.273956 28.293945 19.263962 0.601999 0 58.995885-9.631981 92.10582 21.069959 21.069959 19.263962 28.895944 52.373898 24.079953 98.727807-1.203998 13.243974 8.427984 25.283951 21.671958 27.089947 1.203998 0 1.805996 0 3.009994 0 12.039976 0 22.875955-9.029982 24.079953-21.671958 6.621987-62.005879-6.019988-108.961787-39.129924-139.663727C784.474842 226.351558 705.612996 240.79953 702.001003 241.401529z" p-id="5260"></path><path d="M377.523636 567.082892c-7.825985 0-15.651969 1.203998-23.477954 3.009994-29.497942 6.621987-54.781893 24.079953-69.831864 47.557907-12.039976 19.263962-16.253968 42.139918-11.437978 63.209877 9.029982 40.333921 47.557907 68.025867 94.513815 68.025867 1.203998 0 1.805996 0 3.009994 0l0 0c7.825985 0 15.651969-1.203998 23.477954-3.009994 26.487948-6.019988 49.363904-20.46796 64.413874-40.333921 16.253968-21.069959 22.273956-46.353909 16.855967-70.433862C465.415465 593.570841 425.081544 565.878895 377.523636 567.082892zM423.877546 679.054674c-9.029982 12.039976-23.477954 21.069959-40.333921 24.681952-4.815991 1.203998-10.23398 1.805996-15.049971 1.805996-27.691946 0.601999-49.965902-13.243974-54.781893-34.313933-2.407995-10.23398 0-21.069959 6.019988-30.70194 9.029982-13.845973 24.681952-24.681952 42.741917-28.895944 4.815991-1.203998 10.23398-1.805996 15.049971-1.805996 27.691946-0.601999 49.965902 13.243974 54.781893 34.313933C435.315524 655.57672 432.305529 668.218695 423.877546 679.054674z" p-id="5261"></path><path d="M554.511291 526.748971c-37.323927-21.671958-86.085832-33.109935-137.255732-31.905938-10.835979 0-21.671958 1.203998-32.507937 2.407995-57.189888 7.223986-109.563786 28.895944-147.489712 60.801881-40.333921 34.313933-59.597884 76.453851-54.179894 119.195767 4.815991 38.527925 29.497942 72.841858 69.831864 96.319812 35.517931 20.46796 81.269841 31.905938 130.031746 31.905938 2.407995 0 4.815991 0 7.825985 0 10.835979 0 21.671958-1.203998 32.507937-2.407995 57.189888-7.223986 109.563786-28.895944 147.489712-60.801881 40.333921-34.313933 59.597884-76.453851 54.179894-119.195767C619.527164 584.540858 594.845212 550.226925 554.511291 526.748971zM541.869315 710.358613c-31.303939 26.487948-75.851852 44.547913-124.613757 50.567901-9.631981 1.203998-18.661964 1.805996-28.293945 1.805996-43.343915 1.203998-84.279835-8.427984-114.981775-25.885949-28.293945-16.855967-45.751911-39.731922-48.761905-64.413874-3.611993-28.293945 10.835979-57.189888 40.333921-82.473839 31.303939-26.487948 75.851852-44.547913 124.613757-50.567901 9.631981-1.203998 18.661964-1.805996 28.293945-1.805996 43.343915-1.203998 84.279835 8.427984 114.981775 25.885949 28.293945 16.855967 45.751911 39.731922 48.761905 64.413874C585.81523 656.178718 571.367258 685.676661 541.869315 710.358613z" p-id="5262"></path></svg>
