<svg t="1707313129500" class="icon" viewBox="0 0 1249 1024" version="1.1" xmlns="http://www.w3.org/2000/svg" p-id="36863" width="200" height="200"><path d="M146.434429 819.789902a17.350051 17.350051 0 0 1-16.482548-22.902067l38.864114-117.112843C56.734666 598.056252 0 498.119959 0 382.915622 0 171.765503 200.566588 0 447.11081 0c218.43714 0 412.237208 135.677397 451.101321 315.597425a17.350051 17.350051 0 0 1-34.700101 7.287021C828.811928 158.579465 649.585903 34.700102 447.11081 34.700102 219.651644 34.700102 34.700102 190.850559 34.700102 382.915622 34.700102 489.791935 90.046764 582.614707 199.352084 659.301932a17.350051 17.350051 0 0 1 6.593019 19.779057l-29.842087 89.526263 112.60183-57.255168a17.350051 17.350051 0 0 1 11.104032-1.561505l24.290072 4.858015a527.094544 527.094544 0 0 0 161.702473 14.574042 17.350051 17.350051 0 0 1 2.776008 34.700102 559.71264 559.71264 0 0 1-171.418502-15.268045L298.941376 746.052186l-144.872925 71.82921a17.350051 17.350051 0 0 1-7.634022 1.908506z" p-id="36864"></path><path d="M1113.526262 1023.652999a17.350051 17.350051 0 0 1-8.328024-2.082006l-111.907828-61.24568A530.911555 530.911555 0 0 1 867.502542 980.971874c-211.150119 0-382.915622-147.648933-382.915622-329.650966s171.765503-329.650966 382.915622-329.650966c207.333107 0 381.701118 150.771942 381.701118 329.650966 0 89.352762-52.050152 179.226025-147.822433 254.004744l28.801084 95.945781a17.350051 17.350051 0 0 1-17.350051 22.381566z m-117.806845-98.89529a17.350051 17.350051 0 0 1 8.328025 2.082006L1084.725178 971.602846l-20.126059-66.797695a17.350051 17.350051 0 0 1 6.246018-19.952559C1163.494409 815.452389 1214.503558 732.866147 1214.503558 651.667909c0-159.793968-159.273467-294.950864-347.001016-294.950864-192.065063 0-348.21552 132.207387-348.215521 294.950864s156.150457 294.950864 348.215521 294.950864a523.104033 523.104033 0 0 0 124.746865-20.993561 17.350051 17.350051 0 0 1 3.47001-0.867503z" p-id="36865"></path><path d="M608.466283 200.046086a50.662148 50.662148 0 0 1 53.785157 53.785158 50.662148 50.662148 0 0 1-53.785157 53.785157c-32.271095 0-64.542189-21.514063-64.542189-53.785157s32.271095-53.785158 64.542189-53.785158zM307.616401 307.442901c-32.271095 0-64.88919-21.514063-64.88919-53.785158s32.618096-53.785158 64.88919-53.785157a50.662148 50.662148 0 0 1 53.611657 53.785157 50.835649 50.835649 0 0 1-53.611657 53.785158zM748.134192 597.882752A46.151135 46.151135 0 0 1 705.106066 555.201627a46.324636 46.324636 0 0 1 43.028126-43.028126c32.444595 0 53.785158 21.514063 53.785157 43.028126s-21.167062 42.681125-53.785157 42.681125zM984.788885 597.882752A45.977635 45.977635 0 0 1 941.93426 555.201627a46.151135 46.151135 0 0 1 42.681125-43.028126 49.274144 49.274144 0 0 1 53.785157 43.028126c0 21.514063-21.514063 42.681125-53.611657 42.681125z" p-id="36866"></path></svg>
